<?xml version="1.0" encoding="utf-8"?>
<!-- Generator: Adobe Illustrator 24.0.1, SVG Export Plug-In . SVG Version: 6.00 Build 0)  -->
<svg version="1.1" id="Layer_1" xmlns="http://www.w3.org/2000/svg" xmlns:xlink="http://www.w3.org/1999/xlink" x="0px" y="0px"
	 viewBox="0 0 600 400" style="enable-background:new 0 0 600 400;" xml:space="preserve">
<style type="text/css">
	.st0{fill:url(#SVGID_1_);}
	.st1{fill:url(#SVGID_2_);}
	.st2{fill:url(#SVGID_3_);}
	.st3{fill:url(#SVGID_4_);}
	.st4{fill:url(#SVGID_5_);}
	.st5{fill:#FFFFFF;}
	.st6{fill:url(#SVGID_6_);}
	.st7{fill:url(#SVGID_7_);}
	.st8{fill:url(#SVGID_8_);}
</style>
<rect x="-0.4" y="-0.2" width="600.5" height="399.5"/>
<g>
	<g>
		<linearGradient id="SVGID_1_" gradientUnits="userSpaceOnUse" x1="55.3877" y1="310.7249" x2="72.5925" y2="310.7249">
			<stop  offset="0" style="stop-color:#B62025"/>
			<stop  offset="1" style="stop-color:#EE3033"/>
		</linearGradient>
		<path class="st0" d="M63.1,299c1.7,0,3.2,0.2,4.3,0.6c1.1,0.4,2,0.9,2.6,1.5s1.1,1.3,1.3,2.1c0.2,0.8,0.4,1.6,0.4,2.4
			c0,1.5-0.3,2.8-0.9,3.8c-0.6,1.1-1.6,1.9-3.1,2.5l4.9,10.5h-3.4l-4.4-9.8c-0.3,0-0.6,0.1-0.9,0.1c-0.3,0-0.6,0-0.9,0h-4.6v9.7h-3
			V299H63.1z M65.9,309.8c0.7-0.2,1.2-0.5,1.6-0.9c0.4-0.4,0.7-0.8,0.8-1.4c0.2-0.5,0.2-1.2,0.2-1.8c0-0.7-0.1-1.2-0.3-1.7
			c-0.2-0.5-0.5-0.9-0.9-1.3c-0.4-0.4-1-0.6-1.7-0.8c-0.7-0.2-1.6-0.3-2.8-0.3h-4.6v8.6h5C64.4,310.1,65.3,310,65.9,309.8z"/>
		<linearGradient id="SVGID_2_" gradientUnits="userSpaceOnUse" x1="76.0897" y1="310.7249" x2="93.2945" y2="310.7249">
			<stop  offset="0" style="stop-color:#B62025"/>
			<stop  offset="1" style="stop-color:#EE3033"/>
		</linearGradient>
		<path class="st1" d="M83.8,299c1.7,0,3.2,0.2,4.3,0.6c1.1,0.4,2,0.9,2.6,1.5s1.1,1.3,1.3,2.1c0.2,0.8,0.4,1.6,0.4,2.4
			c0,1.5-0.3,2.8-0.9,3.8c-0.6,1.1-1.6,1.9-3.1,2.5l4.9,10.5h-3.4l-4.4-9.8c-0.3,0-0.6,0.1-0.9,0.1c-0.3,0-0.6,0-0.9,0h-4.6v9.7h-3
			V299H83.8z M86.6,309.8c0.7-0.2,1.2-0.5,1.6-0.9c0.4-0.4,0.7-0.8,0.8-1.4c0.2-0.5,0.2-1.2,0.2-1.8c0-0.7-0.1-1.2-0.3-1.7
			c-0.2-0.5-0.5-0.9-0.9-1.3c-0.4-0.4-1-0.6-1.7-0.8c-0.7-0.2-1.6-0.3-2.8-0.3h-4.6v8.6h5C85.1,310.1,86,310,86.6,309.8z"/>
		<linearGradient id="SVGID_3_" gradientUnits="userSpaceOnUse" x1="96.79" y1="310.7249" x2="112.5531" y2="310.7249">
			<stop  offset="0" style="stop-color:#B62025"/>
			<stop  offset="1" style="stop-color:#EE3033"/>
		</linearGradient>
		<path class="st2" d="M111.9,299v2.7H99.8v7.3h11.5v2.7H99.8v8.1h12.7l-0.5,2.7H96.8V299H111.9z"/>
		<linearGradient id="SVGID_4_" gradientUnits="userSpaceOnUse" x1="114.0182" y1="310.7249" x2="135.3842" y2="310.7249">
			<stop  offset="0" style="stop-color:#B62025"/>
			<stop  offset="1" style="stop-color:#EE3033"/>
		</linearGradient>
		<path class="st3" d="M126.3,299l9.1,23.4h-3.3l-2.5-6.5h-10l-2.5,6.5H114l9.1-23.4H126.3z M124.6,302.4l-4.1,10.8h8.2L124.6,302.4
			z"/>
		<linearGradient id="SVGID_5_" gradientUnits="userSpaceOnUse" x1="138.3244" y1="310.7249" x2="153.4637" y2="310.7249">
			<stop  offset="0" style="stop-color:#B62025"/>
			<stop  offset="1" style="stop-color:#EE3033"/>
		</linearGradient>
		<path class="st4" d="M141.3,299v20.7h12.1l-0.5,2.7h-14.7V299H141.3z"/>
		<path class="st5" d="M178.6,299v2.7h-11.5v7.7h10.8v2.7h-10.8v10.4h-3V299H178.6z"/>
		<path class="st5" d="M185.5,299v23.4h-3V299H185.5z"/>
		<path class="st5" d="M188.7,301.7V299h18.5v2.7h-7.7v20.7h-3v-20.7H188.7z"/>
		<path class="st5" d="M213.4,299l11.9,18.6V299h2.9v23.4h-2.9l-12-18.5v18.5h-2.9V299H213.4z"/>
		<path class="st5" d="M248.5,299v2.7h-12.1v7.3h11.5v2.7h-11.5v8.1h12.7l-0.5,2.7h-15.3V299H248.5z"/>
		<path class="st5" d="M256.5,319.3c1,0.7,2.6,1.1,4.6,1.1c1,0,1.9-0.1,2.6-0.3c0.7-0.2,1.2-0.5,1.7-0.9c0.4-0.4,0.7-0.8,0.9-1.3
			c0.2-0.5,0.3-1.1,0.3-1.6c0-0.5-0.1-0.9-0.2-1.3c-0.1-0.4-0.3-0.8-0.6-1.2c-0.3-0.3-0.8-0.7-1.3-0.9c-0.6-0.3-1.3-0.5-2.1-0.6
			l-2.9-0.5c-1.2-0.2-2.2-0.5-3.1-0.8c-0.9-0.3-1.7-0.7-2.3-1.3c-0.6-0.5-1.1-1.2-1.4-1.9c-0.3-0.8-0.5-1.7-0.5-2.8
			c0-1.1,0.2-2,0.7-2.8c0.4-0.8,1.1-1.5,1.8-2c0.8-0.5,1.7-0.9,2.7-1.2c1-0.3,2.2-0.4,3.4-0.4c1.6,0,2.8,0.2,3.9,0.5
			c1,0.3,1.9,0.8,2.5,1.4c0.7,0.6,1.2,1.2,1.5,2c0.3,0.7,0.6,1.5,0.8,2.2l-2.8,0.6c-0.2-0.7-0.4-1.2-0.7-1.8
			c-0.3-0.5-0.6-0.9-1.1-1.3c-0.4-0.3-1-0.6-1.7-0.8c-0.7-0.2-1.5-0.3-2.4-0.3c-1.1,0-2,0.1-2.7,0.3c-0.7,0.2-1.3,0.5-1.7,0.8
			c-0.4,0.3-0.7,0.7-0.9,1.2c-0.2,0.5-0.3,1-0.3,1.5c0,0.6,0.1,1.1,0.2,1.5c0.1,0.4,0.4,0.8,0.7,1.1c0.3,0.3,0.8,0.6,1.3,0.8
			c0.5,0.2,1.2,0.4,2,0.5l3.3,0.6c2.4,0.5,4.2,1.2,5.3,2.3s1.7,2.6,1.7,4.7c0,0.9-0.2,1.8-0.5,2.6c-0.4,0.8-0.9,1.5-1.6,2.1
			c-0.7,0.6-1.6,1.1-2.7,1.4c-1.1,0.3-2.3,0.5-3.8,0.5c-1.4,0-2.6-0.1-3.8-0.4c-1.1-0.3-2.1-0.7-2.9-1.3c-0.8-0.6-1.5-1.3-2-2.3
			c-0.5-0.9-0.8-2-0.9-3.3h3C254.8,317.4,255.4,318.6,256.5,319.3z"/>
		<path class="st5" d="M277.5,319.3c1,0.7,2.6,1.1,4.6,1.1c1,0,1.9-0.1,2.6-0.3c0.7-0.2,1.2-0.5,1.7-0.9c0.4-0.4,0.7-0.8,0.9-1.3
			c0.2-0.5,0.3-1.1,0.3-1.6c0-0.5-0.1-0.9-0.2-1.3c-0.1-0.4-0.3-0.8-0.6-1.2c-0.3-0.3-0.8-0.7-1.3-0.9c-0.6-0.3-1.3-0.5-2.1-0.6
			l-2.9-0.5c-1.2-0.2-2.2-0.5-3.1-0.8c-0.9-0.3-1.7-0.7-2.3-1.3c-0.6-0.5-1.1-1.2-1.4-1.9c-0.3-0.8-0.5-1.7-0.5-2.8
			c0-1.1,0.2-2,0.7-2.8c0.4-0.8,1.1-1.5,1.8-2c0.8-0.5,1.7-0.9,2.7-1.2c1-0.3,2.2-0.4,3.4-0.4c1.6,0,2.8,0.2,3.9,0.5
			c1,0.3,1.9,0.8,2.5,1.4c0.7,0.6,1.2,1.2,1.5,2c0.3,0.7,0.6,1.5,0.8,2.2l-2.8,0.6c-0.2-0.7-0.4-1.2-0.7-1.8
			c-0.3-0.5-0.6-0.9-1.1-1.3c-0.4-0.3-1-0.6-1.7-0.8c-0.7-0.2-1.5-0.3-2.4-0.3c-1.1,0-2,0.1-2.7,0.3c-0.7,0.2-1.3,0.5-1.7,0.8
			c-0.4,0.3-0.7,0.7-0.9,1.2c-0.2,0.5-0.3,1-0.3,1.5c0,0.6,0.1,1.1,0.2,1.5c0.1,0.4,0.4,0.8,0.7,1.1c0.3,0.3,0.8,0.6,1.3,0.8
			c0.5,0.2,1.2,0.4,2,0.5l3.3,0.6c2.4,0.5,4.2,1.2,5.3,2.3s1.7,2.6,1.7,4.7c0,0.9-0.2,1.8-0.5,2.6c-0.4,0.8-0.9,1.5-1.6,2.1
			c-0.7,0.6-1.6,1.1-2.7,1.4c-1.1,0.3-2.3,0.5-3.8,0.5c-1.4,0-2.6-0.1-3.8-0.4c-1.1-0.3-2.1-0.7-2.9-1.3c-0.8-0.6-1.5-1.3-2-2.3
			c-0.5-0.9-0.8-2-0.9-3.3h3C275.8,317.4,276.5,318.6,277.5,319.3z"/>
		<path class="st5" d="M312.3,299l9.1,23.4h-3.3l-2.5-6.5h-10l-2.5,6.5H300l9.1-23.4H312.3z M310.6,302.4l-4.1,10.8h8.2L310.6,302.4
			z"/>
		<path class="st5" d="M327.3,299l11.9,18.6V299h2.9v23.4h-2.9l-12-18.5v18.5h-2.9V299H327.3z"/>
		<path class="st5" d="M355.5,299c1.7,0,3.2,0.2,4.6,0.7c1.3,0.5,2.5,1.2,3.4,2.1c0.9,1,1.6,2.2,2.1,3.6c0.5,1.4,0.8,3.1,0.8,5.1
			c0,2-0.3,3.7-0.8,5.2c-0.5,1.5-1.3,2.7-2.3,3.7c-1,1-2.2,1.7-3.7,2.2c-1.4,0.5-3.1,0.8-4.9,0.8h-7.4V299H355.5z M361.2,317.4
			c1.3-1.6,2-3.9,2-6.7c0-1.4-0.1-2.7-0.4-3.8c-0.3-1.1-0.8-2.1-1.4-2.8s-1.4-1.4-2.4-1.8c-1-0.4-2.2-0.6-3.5-0.6h-5.2v18.2h4.6
			C357.7,319.8,359.9,319,361.2,317.4z"/>
		<path class="st5" d="M379.2,299l4.9,19.2l5.1-19.1h3.2l5,19.1l4.9-19.2h3.2l-6.5,23.4h-3.2l-5.2-19.6l-5.1,19.6h-3.1l-6.6-23.4
			H379.2z"/>
		<path class="st5" d="M423.6,299v2.7h-12.1v7.3h11.5v2.7h-11.5v8.1h12.7l-0.5,2.7h-15.3V299H423.6z"/>
		<path class="st5" d="M430.9,299v20.7h12.1l-0.5,2.7h-14.7V299H430.9z"/>
		<path class="st5" d="M449.3,299v20.7h12.1l-0.5,2.7h-14.7V299H449.3z"/>
		<path class="st5" d="M467.7,299l11.9,18.6V299h2.9v23.4h-2.9l-12-18.5v18.5h-2.9V299H467.7z"/>
		<path class="st5" d="M502.8,299v2.7h-12.1v7.3h11.5v2.7h-11.5v8.1h12.7l-0.5,2.7h-15.3V299H502.8z"/>
		<path class="st5" d="M510.8,319.3c1,0.7,2.6,1.1,4.6,1.1c1,0,1.9-0.1,2.6-0.3c0.7-0.2,1.2-0.5,1.7-0.9c0.4-0.4,0.7-0.8,0.9-1.3
			c0.2-0.5,0.3-1.1,0.3-1.6c0-0.5-0.1-0.9-0.2-1.3c-0.1-0.4-0.3-0.8-0.6-1.2c-0.3-0.3-0.8-0.7-1.3-0.9c-0.6-0.3-1.3-0.5-2.1-0.6
			l-3-0.5c-1.2-0.2-2.2-0.5-3.1-0.8c-0.9-0.3-1.7-0.7-2.3-1.3c-0.6-0.5-1.1-1.2-1.4-1.9c-0.3-0.8-0.5-1.7-0.5-2.8
			c0-1.1,0.2-2,0.7-2.8c0.4-0.8,1.1-1.5,1.8-2c0.8-0.5,1.7-0.9,2.7-1.2c1-0.3,2.2-0.4,3.4-0.4c1.6,0,2.8,0.2,3.9,0.5
			c1,0.3,1.9,0.8,2.5,1.4c0.7,0.6,1.2,1.2,1.5,2c0.3,0.7,0.6,1.5,0.8,2.2l-2.8,0.6c-0.2-0.7-0.4-1.2-0.7-1.8
			c-0.3-0.5-0.6-0.9-1.1-1.3c-0.4-0.3-1-0.6-1.7-0.8c-0.7-0.2-1.5-0.3-2.4-0.3c-1.1,0-2,0.1-2.7,0.3c-0.7,0.2-1.3,0.5-1.7,0.8
			c-0.4,0.3-0.7,0.7-0.9,1.2c-0.2,0.5-0.3,1-0.3,1.5c0,0.6,0.1,1.1,0.2,1.5c0.1,0.4,0.4,0.8,0.7,1.1c0.3,0.3,0.8,0.6,1.3,0.8
			c0.5,0.2,1.2,0.4,2,0.5l3.3,0.6c2.4,0.5,4.2,1.2,5.3,2.3c1.1,1.1,1.7,2.6,1.7,4.7c0,0.9-0.2,1.8-0.5,2.6c-0.4,0.8-0.9,1.5-1.6,2.1
			c-0.7,0.6-1.6,1.1-2.7,1.4c-1.1,0.3-2.3,0.5-3.8,0.5c-1.4,0-2.6-0.1-3.8-0.4c-1.1-0.3-2.1-0.7-2.9-1.3c-0.8-0.6-1.5-1.3-2-2.3
			c-0.5-0.9-0.8-2-0.9-3.3h3C509.1,317.4,509.8,318.6,510.8,319.3z"/>
		<path class="st5" d="M531.9,319.3c1,0.7,2.6,1.1,4.6,1.1c1,0,1.9-0.1,2.6-0.3c0.7-0.2,1.2-0.5,1.7-0.9c0.4-0.4,0.7-0.8,0.9-1.3
			c0.2-0.5,0.3-1.1,0.3-1.6c0-0.5-0.1-0.9-0.2-1.3c-0.1-0.4-0.3-0.8-0.6-1.2c-0.3-0.3-0.8-0.7-1.3-0.9c-0.6-0.3-1.3-0.5-2.1-0.6
			l-3-0.5c-1.2-0.2-2.2-0.5-3.1-0.8c-0.9-0.3-1.7-0.7-2.3-1.3c-0.6-0.5-1.1-1.2-1.4-1.9c-0.3-0.8-0.5-1.7-0.5-2.8
			c0-1.1,0.2-2,0.7-2.8s1.1-1.5,1.8-2c0.8-0.5,1.7-0.9,2.7-1.2c1-0.3,2.2-0.4,3.4-0.4c1.6,0,2.8,0.2,3.9,0.5c1,0.3,1.9,0.8,2.5,1.4
			c0.7,0.6,1.2,1.2,1.5,2c0.3,0.7,0.6,1.5,0.8,2.2l-2.8,0.6c-0.2-0.7-0.4-1.2-0.7-1.8c-0.3-0.5-0.6-0.9-1.1-1.3
			c-0.4-0.3-1-0.6-1.7-0.8c-0.7-0.2-1.5-0.3-2.4-0.3c-1.1,0-2,0.1-2.7,0.3c-0.7,0.2-1.3,0.5-1.7,0.8c-0.4,0.3-0.7,0.7-0.9,1.2
			c-0.2,0.5-0.3,1-0.3,1.5c0,0.6,0.1,1.1,0.2,1.5c0.1,0.4,0.4,0.8,0.7,1.1s0.8,0.6,1.3,0.8c0.5,0.2,1.2,0.4,2,0.5l3.3,0.6
			c2.4,0.5,4.2,1.2,5.3,2.3c1.1,1.1,1.7,2.6,1.7,4.7c0,0.9-0.2,1.8-0.5,2.6c-0.4,0.8-0.9,1.5-1.6,2.1c-0.7,0.6-1.6,1.1-2.7,1.4
			c-1.1,0.3-2.3,0.5-3.8,0.5c-1.4,0-2.6-0.1-3.8-0.4c-1.1-0.3-2.1-0.7-2.9-1.3c-0.8-0.6-1.5-1.3-2-2.3c-0.5-0.9-0.8-2-0.9-3.3h3
			C530.2,317.4,530.8,318.6,531.9,319.3z"/>
	</g>
	<linearGradient id="SVGID_6_" gradientUnits="userSpaceOnUse" x1="304.5412" y1="217.8571" x2="544.1769" y2="217.8571">
		<stop  offset="0" style="stop-color:#B62025"/>
		<stop  offset="1" style="stop-color:#EE3033"/>
	</linearGradient>
	<path class="st6" d="M531.5,166.5v20.2c-1.4,3.5-2.5,5-3,5.6c-0.6,0.2-2.7,0.8-7.1,0.8h-45.6h-28.4l19,21.1l49.4,55h-45.5
		l-61.4-68.7v-34.1H531.5 M355.7,166.5v102.7h-38.5V166.5H355.7 M544.2,153.8H396.1v51.6l68.4,76.5h79.6l-68.4-76.1h45.6
		c7.5,0,12.6-1.3,15.4-3.9c2.8-2.6,5.3-6.9,7.4-13V153.8L544.2,153.8z M368.4,153.8h-63.9v128.1h63.9V153.8L368.4,153.8z"/>
	<linearGradient id="SVGID_7_" gradientUnits="userSpaceOnUse" x1="294.5504" y1="102.9522" x2="544.1769" y2="102.9522">
		<stop  offset="0" style="stop-color:#B62025"/>
		<stop  offset="1" style="stop-color:#EE3033"/>
	</linearGradient>
	<path class="st7" d="M524.3,89.7c3.5,1.1,5.7,3,7.2,6.5v20.1H316.7V93.5v-0.6l-0.1-0.6c-0.1-0.9-0.2-1.8-0.3-2.7H524.3 M525.9,77
		H294.6c5.9,2.8,8.8,9.2,9.4,16.5v35.4h240.2V93.8C542.9,83.5,535,78.1,525.9,77L525.9,77z"/>
	<linearGradient id="SVGID_8_" gradientUnits="userSpaceOnUse" x1="54.9147" y1="179.4391" x2="294.5504" y2="179.4391">
		<stop  offset="0" style="stop-color:#B62025"/>
		<stop  offset="1" style="stop-color:#EE3033"/>
	</linearGradient>
	<path class="st8" d="M276.3,89.7c1.8,0,5.3,3,5.6,4.7v21.9H67.6V89.7H276.3 M281.9,166.5v20.2c-1.4,3.5-2.5,5-3,5.6
		c-0.6,0.2-2.7,0.8-7.1,0.8h-45.6h-28.4l19,21.1l49.4,55h-45.5l-61.4-68.7v-34.1H281.9 M106.1,166.5v102.7H67.6V166.5H106.1
		 M276.3,77H54.9v51.9h239.6V93.8C294.2,85.2,284.6,77,276.3,77L276.3,77z M294.6,153.8H146.5v51.6l68.4,76.5h79.6l-68.4-76.1h45.6
		c7.5,0,12.6-1.3,15.4-3.9c2.8-2.6,5.3-6.9,7.4-13V153.8L294.6,153.8z M118.8,153.8H54.9v128.1h63.9V153.8L118.8,153.8z"/>
</g>
</svg>
